<?xml version="1.0" encoding="utf-8" standalone="no"?>
<!DOCTYPE svg PUBLIC "-//W3C//DTD SVG 1.1//EN"
  "http://www.w3.org/Graphics/SVG/1.1/DTD/svg11.dtd">
<!-- Created with matplotlib (https://matplotlib.org/) -->
<svg height="345.6pt" version="1.1" viewBox="0 0 460.8 345.6" width="460.8pt" xmlns="http://www.w3.org/2000/svg" xmlns:xlink="http://www.w3.org/1999/xlink">
 <defs>
  <style type="text/css">
*{stroke-linecap:butt;stroke-linejoin:round;}
  </style>
 </defs>
 <g id="figure_1">
  <g id="patch_1">
   <path d="M 0 345.6 
L 460.8 345.6 
L 460.8 0 
L 0 0 
z
" style="fill:#ffffff;"/>
  </g>
  <g id="axes_1">
   <g id="patch_2">
    <path d="M 57.6 162.432 
L 414.72 162.432 
L 414.72 41.472 
L 57.6 41.472 
z
" style="fill:#ffffff;"/>
   </g>
   <g id="matplotlib.axis_1">
    <g id="xtick_1">
     <g id="line2d_1">
      <defs>
       <path d="M 0 0 
L 0 3.5 
" id="ma5ea8df7d6" style="stroke:#000000;stroke-width:0.8;"/>
      </defs>
      <g>
       <use style="stroke:#000000;stroke-width:0.8;" x="73.832727" xlink:href="#ma5ea8df7d6" y="162.432"/>
      </g>
     </g>
     <g id="text_1">
      <!-- 0 -->
      <defs>
       <path d="M 31.78125 66.40625 
Q 24.171875 66.40625 20.328125 58.90625 
Q 16.5 51.421875 16.5 36.375 
Q 16.5 21.390625 20.328125 13.890625 
Q 24.171875 6.390625 31.78125 6.390625 
Q 39.453125 6.390625 43.28125 13.890625 
Q 47.125 21.390625 47.125 36.375 
Q 47.125 51.421875 43.28125 58.90625 
Q 39.453125 66.40625 31.78125 66.40625 
z
M 31.78125 74.21875 
Q 44.046875 74.21875 50.515625 64.515625 
Q 56.984375 54.828125 56.984375 36.375 
Q 56.984375 17.96875 50.515625 8.265625 
Q 44.046875 -1.421875 31.78125 -1.421875 
Q 19.53125 -1.421875 13.0625 8.265625 
Q 6.59375 17.96875 6.59375 36.375 
Q 6.59375 54.828125 13.0625 64.515625 
Q 19.53125 74.21875 31.78125 74.21875 
z
" id="DejaVuSans-48"/>
      </defs>
      <g transform="translate(70.651477 177.030437)scale(0.1 -0.1)">
       <use xlink:href="#DejaVuSans-48"/>
      </g>
     </g>
    </g>
    <g id="xtick_2">
     <g id="line2d_2">
      <g>
       <use style="stroke:#000000;stroke-width:0.8;" x="122.17319" xlink:href="#ma5ea8df7d6" y="162.432"/>
      </g>
     </g>
     <g id="text_2">
      <!-- 250 -->
      <defs>
       <path d="M 19.1875 8.296875 
L 53.609375 8.296875 
L 53.609375 0 
L 7.328125 0 
L 7.328125 8.296875 
Q 12.9375 14.109375 22.625 23.890625 
Q 32.328125 33.6875 34.8125 36.53125 
Q 39.546875 41.84375 41.421875 45.53125 
Q 43.3125 49.21875 43.3125 52.78125 
Q 43.3125 58.59375 39.234375 62.25 
Q 35.15625 65.921875 28.609375 65.921875 
Q 23.96875 65.921875 18.8125 64.3125 
Q 13.671875 62.703125 7.8125 59.421875 
L 7.8125 69.390625 
Q 13.765625 71.78125 18.9375 73 
Q 24.125 74.21875 28.421875 74.21875 
Q 39.75 74.21875 46.484375 68.546875 
Q 53.21875 62.890625 53.21875 53.421875 
Q 53.21875 48.921875 51.53125 44.890625 
Q 49.859375 40.875 45.40625 35.40625 
Q 44.1875 33.984375 37.640625 27.21875 
Q 31.109375 20.453125 19.1875 8.296875 
z
" id="DejaVuSans-50"/>
       <path d="M 10.796875 72.90625 
L 49.515625 72.90625 
L 49.515625 64.59375 
L 19.828125 64.59375 
L 19.828125 46.734375 
Q 21.96875 47.46875 24.109375 47.828125 
Q 26.265625 48.1875 28.421875 48.1875 
Q 40.625 48.1875 47.75 41.5 
Q 54.890625 34.8125 54.890625 23.390625 
Q 54.890625 11.625 47.5625 5.09375 
Q 40.234375 -1.421875 26.90625 -1.421875 
Q 22.3125 -1.421875 17.546875 -0.640625 
Q 12.796875 0.140625 7.71875 1.703125 
L 7.71875 11.625 
Q 12.109375 9.234375 16.796875 8.0625 
Q 21.484375 6.890625 26.703125 6.890625 
Q 35.15625 6.890625 40.078125 11.328125 
Q 45.015625 15.765625 45.015625 23.390625 
Q 45.015625 31 40.078125 35.4375 
Q 35.15625 39.890625 26.703125 39.890625 
Q 22.75 39.890625 18.8125 39.015625 
Q 14.890625 38.140625 10.796875 36.28125 
z
" id="DejaVuSans-53"/>
      </defs>
      <g transform="translate(112.62944 177.030437)scale(0.1 -0.1)">
       <use xlink:href="#DejaVuSans-50"/>
       <use x="63.623047" xlink:href="#DejaVuSans-53"/>
       <use x="127.246094" xlink:href="#DejaVuSans-48"/>
      </g>
     </g>
    </g>
    <g id="xtick_3">
     <g id="line2d_3">
      <g>
       <use style="stroke:#000000;stroke-width:0.8;" x="170.513652" xlink:href="#ma5ea8df7d6" y="162.432"/>
      </g>
     </g>
     <g id="text_3">
      <!-- 500 -->
      <g transform="translate(160.969902 177.030437)scale(0.1 -0.1)">
       <use xlink:href="#DejaVuSans-53"/>
       <use x="63.623047" xlink:href="#DejaVuSans-48"/>
       <use x="127.246094" xlink:href="#DejaVuSans-48"/>
      </g>
     </g>
    </g>
    <g id="xtick_4">
     <g id="line2d_4">
      <g>
       <use style="stroke:#000000;stroke-width:0.8;" x="218.854114" xlink:href="#ma5ea8df7d6" y="162.432"/>
      </g>
     </g>
     <g id="text_4">
      <!-- 750 -->
      <defs>
       <path d="M 8.203125 72.90625 
L 55.078125 72.90625 
L 55.078125 68.703125 
L 28.609375 0 
L 18.3125 0 
L 43.21875 64.59375 
L 8.203125 64.59375 
z
" id="DejaVuSans-55"/>
      </defs>
      <g transform="translate(209.310364 177.030437)scale(0.1 -0.1)">
       <use xlink:href="#DejaVuSans-55"/>
       <use x="63.623047" xlink:href="#DejaVuSans-53"/>
       <use x="127.246094" xlink:href="#DejaVuSans-48"/>
      </g>
     </g>
    </g>
    <g id="xtick_5">
     <g id="line2d_5">
      <g>
       <use style="stroke:#000000;stroke-width:0.8;" x="267.194577" xlink:href="#ma5ea8df7d6" y="162.432"/>
      </g>
     </g>
     <g id="text_5">
      <!-- 1000 -->
      <defs>
       <path d="M 12.40625 8.296875 
L 28.515625 8.296875 
L 28.515625 63.921875 
L 10.984375 60.40625 
L 10.984375 69.390625 
L 28.421875 72.90625 
L 38.28125 72.90625 
L 38.28125 8.296875 
L 54.390625 8.296875 
L 54.390625 0 
L 12.40625 0 
z
" id="DejaVuSans-49"/>
      </defs>
      <g transform="translate(254.469577 177.030437)scale(0.1 -0.1)">
       <use xlink:href="#DejaVuSans-49"/>
       <use x="63.623047" xlink:href="#DejaVuSans-48"/>
       <use x="127.246094" xlink:href="#DejaVuSans-48"/>
       <use x="190.869141" xlink:href="#DejaVuSans-48"/>
      </g>
     </g>
    </g>
    <g id="xtick_6">
     <g id="line2d_6">
      <g>
       <use style="stroke:#000000;stroke-width:0.8;" x="315.535039" xlink:href="#ma5ea8df7d6" y="162.432"/>
      </g>
     </g>
     <g id="text_6">
      <!-- 1250 -->
      <g transform="translate(302.810039 177.030437)scale(0.1 -0.1)">
       <use xlink:href="#DejaVuSans-49"/>
       <use x="63.623047" xlink:href="#DejaVuSans-50"/>
       <use x="127.246094" xlink:href="#DejaVuSans-53"/>
       <use x="190.869141" xlink:href="#DejaVuSans-48"/>
      </g>
     </g>
    </g>
    <g id="xtick_7">
     <g id="line2d_7">
      <g>
       <use style="stroke:#000000;stroke-width:0.8;" x="363.875502" xlink:href="#ma5ea8df7d6" y="162.432"/>
      </g>
     </g>
     <g id="text_7">
      <!-- 1500 -->
      <g transform="translate(351.150502 177.030437)scale(0.1 -0.1)">
       <use xlink:href="#DejaVuSans-49"/>
       <use x="63.623047" xlink:href="#DejaVuSans-53"/>
       <use x="127.246094" xlink:href="#DejaVuSans-48"/>
       <use x="190.869141" xlink:href="#DejaVuSans-48"/>
      </g>
     </g>
    </g>
    <g id="xtick_8">
     <g id="line2d_8">
      <g>
       <use style="stroke:#000000;stroke-width:0.8;" x="412.215964" xlink:href="#ma5ea8df7d6" y="162.432"/>
      </g>
     </g>
     <g id="text_8">
      <!-- 1750 -->
      <g transform="translate(399.490964 177.030437)scale(0.1 -0.1)">
       <use xlink:href="#DejaVuSans-49"/>
       <use x="63.623047" xlink:href="#DejaVuSans-55"/>
       <use x="127.246094" xlink:href="#DejaVuSans-53"/>
       <use x="190.869141" xlink:href="#DejaVuSans-48"/>
      </g>
     </g>
    </g>
   </g>
   <g id="matplotlib.axis_2">
    <g id="ytick_1">
     <g id="line2d_9">
      <defs>
       <path d="M 0 0 
L -3.5 0 
" id="md34119e008" style="stroke:#000000;stroke-width:0.8;"/>
      </defs>
      <g>
       <use style="stroke:#000000;stroke-width:0.8;" x="57.6" xlink:href="#md34119e008" y="156.640938"/>
      </g>
     </g>
     <g id="text_9">
      <!-- 0.825 -->
      <defs>
       <path d="M 10.6875 12.40625 
L 21 12.40625 
L 21 0 
L 10.6875 0 
z
" id="DejaVuSans-46"/>
       <path d="M 31.78125 34.625 
Q 24.75 34.625 20.71875 30.859375 
Q 16.703125 27.09375 16.703125 20.515625 
Q 16.703125 13.921875 20.71875 10.15625 
Q 24.75 6.390625 31.78125 6.390625 
Q 38.8125 6.390625 42.859375 10.171875 
Q 46.921875 13.96875 46.921875 20.515625 
Q 46.921875 27.09375 42.890625 30.859375 
Q 38.875 34.625 31.78125 34.625 
z
M 21.921875 38.8125 
Q 15.578125 40.375 12.03125 44.71875 
Q 8.5 49.078125 8.5 55.328125 
Q 8.5 64.0625 14.71875 69.140625 
Q 20.953125 74.21875 31.78125 74.21875 
Q 42.671875 74.21875 48.875 69.140625 
Q 55.078125 64.0625 55.078125 55.328125 
Q 55.078125 49.078125 51.53125 44.71875 
Q 48 40.375 41.703125 38.8125 
Q 48.828125 37.15625 52.796875 32.3125 
Q 56.78125 27.484375 56.78125 20.515625 
Q 56.78125 9.90625 50.3125 4.234375 
Q 43.84375 -1.421875 31.78125 -1.421875 
Q 19.734375 -1.421875 13.25 4.234375 
Q 6.78125 9.90625 6.78125 20.515625 
Q 6.78125 27.484375 10.78125 32.3125 
Q 14.796875 37.15625 21.921875 38.8125 
z
M 18.3125 54.390625 
Q 18.3125 48.734375 21.84375 45.5625 
Q 25.390625 42.390625 31.78125 42.390625 
Q 38.140625 42.390625 41.71875 45.5625 
Q 45.3125 48.734375 45.3125 54.390625 
Q 45.3125 60.0625 41.71875 63.234375 
Q 38.140625 66.40625 31.78125 66.40625 
Q 25.390625 66.40625 21.84375 63.234375 
Q 18.3125 60.0625 18.3125 54.390625 
z
" id="DejaVuSans-56"/>
      </defs>
      <g transform="translate(21.971875 160.440157)scale(0.1 -0.1)">
       <use xlink:href="#DejaVuSans-48"/>
       <use x="63.623047" xlink:href="#DejaVuSans-46"/>
       <use x="95.410156" xlink:href="#DejaVuSans-56"/>
       <use x="159.033203" xlink:href="#DejaVuSans-50"/>
       <use x="222.65625" xlink:href="#DejaVuSans-53"/>
      </g>
     </g>
    </g>
    <g id="ytick_2">
     <g id="line2d_10">
      <g>
       <use style="stroke:#000000;stroke-width:0.8;" x="57.6" xlink:href="#md34119e008" y="135.83844"/>
      </g>
     </g>
     <g id="text_10">
      <!-- 0.850 -->
      <g transform="translate(21.971875 139.637659)scale(0.1 -0.1)">
       <use xlink:href="#DejaVuSans-48"/>
       <use x="63.623047" xlink:href="#DejaVuSans-46"/>
       <use x="95.410156" xlink:href="#DejaVuSans-56"/>
       <use x="159.033203" xlink:href="#DejaVuSans-53"/>
       <use x="222.65625" xlink:href="#DejaVuSans-48"/>
      </g>
     </g>
    </g>
    <g id="ytick_3">
     <g id="line2d_11">
      <g>
       <use style="stroke:#000000;stroke-width:0.8;" x="57.6" xlink:href="#md34119e008" y="115.035942"/>
      </g>
     </g>
     <g id="text_11">
      <!-- 0.875 -->
      <g transform="translate(21.971875 118.835161)scale(0.1 -0.1)">
       <use xlink:href="#DejaVuSans-48"/>
       <use x="63.623047" xlink:href="#DejaVuSans-46"/>
       <use x="95.410156" xlink:href="#DejaVuSans-56"/>
       <use x="159.033203" xlink:href="#DejaVuSans-55"/>
       <use x="222.65625" xlink:href="#DejaVuSans-53"/>
      </g>
     </g>
    </g>
    <g id="ytick_4">
     <g id="line2d_12">
      <g>
       <use style="stroke:#000000;stroke-width:0.8;" x="57.6" xlink:href="#md34119e008" y="94.233444"/>
      </g>
     </g>
     <g id="text_12">
      <!-- 0.900 -->
      <defs>
       <path d="M 10.984375 1.515625 
L 10.984375 10.5 
Q 14.703125 8.734375 18.5 7.8125 
Q 22.3125 6.890625 25.984375 6.890625 
Q 35.75 6.890625 40.890625 13.453125 
Q 46.046875 20.015625 46.78125 33.40625 
Q 43.953125 29.203125 39.59375 26.953125 
Q 35.25 24.703125 29.984375 24.703125 
Q 19.046875 24.703125 12.671875 31.3125 
Q 6.296875 37.9375 6.296875 49.421875 
Q 6.296875 60.640625 12.9375 67.421875 
Q 19.578125 74.21875 30.609375 74.21875 
Q 43.265625 74.21875 49.921875 64.515625 
Q 56.59375 54.828125 56.59375 36.375 
Q 56.59375 19.140625 48.40625 8.859375 
Q 40.234375 -1.421875 26.421875 -1.421875 
Q 22.703125 -1.421875 18.890625 -0.6875 
Q 15.09375 0.046875 10.984375 1.515625 
z
M 30.609375 32.421875 
Q 37.25 32.421875 41.125 36.953125 
Q 45.015625 41.5 45.015625 49.421875 
Q 45.015625 57.28125 41.125 61.84375 
Q 37.25 66.40625 30.609375 66.40625 
Q 23.96875 66.40625 20.09375 61.84375 
Q 16.21875 57.28125 16.21875 49.421875 
Q 16.21875 41.5 20.09375 36.953125 
Q 23.96875 32.421875 30.609375 32.421875 
z
" id="DejaVuSans-57"/>
      </defs>
      <g transform="translate(21.971875 98.032663)scale(0.1 -0.1)">
       <use xlink:href="#DejaVuSans-48"/>
       <use x="63.623047" xlink:href="#DejaVuSans-46"/>
       <use x="95.410156" xlink:href="#DejaVuSans-57"/>
       <use x="159.033203" xlink:href="#DejaVuSans-48"/>
       <use x="222.65625" xlink:href="#DejaVuSans-48"/>
      </g>
     </g>
    </g>
    <g id="ytick_5">
     <g id="line2d_13">
      <g>
       <use style="stroke:#000000;stroke-width:0.8;" x="57.6" xlink:href="#md34119e008" y="73.430946"/>
      </g>
     </g>
     <g id="text_13">
      <!-- 0.925 -->
      <g transform="translate(21.971875 77.230165)scale(0.1 -0.1)">
       <use xlink:href="#DejaVuSans-48"/>
       <use x="63.623047" xlink:href="#DejaVuSans-46"/>
       <use x="95.410156" xlink:href="#DejaVuSans-57"/>
       <use x="159.033203" xlink:href="#DejaVuSans-50"/>
       <use x="222.65625" xlink:href="#DejaVuSans-53"/>
      </g>
     </g>
    </g>
    <g id="ytick_6">
     <g id="line2d_14">
      <g>
       <use style="stroke:#000000;stroke-width:0.8;" x="57.6" xlink:href="#md34119e008" y="52.628448"/>
      </g>
     </g>
     <g id="text_14">
      <!-- 0.950 -->
      <g transform="translate(21.971875 56.427667)scale(0.1 -0.1)">
       <use xlink:href="#DejaVuSans-48"/>
       <use x="63.623047" xlink:href="#DejaVuSans-46"/>
       <use x="95.410156" xlink:href="#DejaVuSans-57"/>
       <use x="159.033203" xlink:href="#DejaVuSans-53"/>
       <use x="222.65625" xlink:href="#DejaVuSans-48"/>
      </g>
     </g>
    </g>
   </g>
   <g id="line2d_15">
    <path clip-path="url(#pb0bc9605ef)" d="M 73.832727 65.648866 
L 74.606175 70.684799 
L 75.18626 73.517334 
L 75.379622 65.675252 
L 76.346431 69.418884 
L 77.313241 72.36589 
L 78.28005 74.746348 
L 78.473412 65.690974 
L 79.826945 68.585952 
L 81.180478 70.992647 
L 82.727372 73.289832 
L 84.274267 75.215635 
L 84.467629 75.434606 
L 84.660991 65.699604 
L 86.594609 67.897148 
L 88.72159 69.984538 
L 91.041932 71.946299 
L 93.555636 73.774743 
L 96.262702 75.468481 
L 96.842787 75.800037 
L 97.036149 59.668259 
L 98.389682 62.681823 
L 98.583044 60.675078 
L 100.129939 63.478798 
L 101.483472 65.600211 
L 101.676834 61.933652 
L 103.610452 64.483782 
L 105.737432 66.893106 
L 107.671051 68.794309 
L 107.864413 63.192276 
L 110.378117 65.343844 
L 113.085183 67.375289 
L 115.98561 69.282344 
L 119.272762 71.167675 
L 120.046209 71.574966 
L 120.239571 65.648866 
L 121.013019 70.684799 
L 121.593104 73.517334 
L 121.786466 65.675252 
L 122.753275 69.418884 
L 123.720084 72.36589 
L 124.686894 74.746348 
L 124.880256 65.690974 
L 126.233789 68.585952 
L 127.587321 70.992647 
L 129.134216 73.289832 
L 130.681111 75.215635 
L 130.874473 75.434606 
L 131.067835 65.699604 
L 133.001453 67.897148 
L 135.128434 69.984538 
L 137.448776 71.946299 
L 139.96248 73.774743 
L 142.669546 75.468481 
L 143.249631 75.800037 
L 143.442993 65.280459 
L 144.216441 70.179008 
L 144.796526 72.966311 
L 144.989888 65.461042 
L 145.956697 69.14253 
L 146.923506 72.057247 
L 147.890316 74.421488 
L 148.083678 65.574322 
L 149.43721 68.442716 
L 150.790743 70.832449 
L 152.337638 73.118524 
L 154.077895 75.257594 
L 154.271257 65.638897 
L 156.204875 67.825233 
L 158.331856 69.904389 
L 160.652198 71.860099 
L 163.165902 73.684426 
L 165.872968 75.376032 
L 166.453053 75.707489 
L 166.646415 64.943795 
L 167.419862 69.710812 
L 167.999948 72.452089 
L 168.19331 65.257992 
L 169.160119 68.878971 
L 170.32029 72.268084 
L 171.093738 74.109026 
L 171.287099 65.461389 
L 172.640632 68.302951 
L 174.187527 70.983571 
L 175.734422 73.208444 
L 177.281317 75.083806 
L 177.474679 65.578885 
L 179.408297 67.754309 
L 181.535277 69.825133 
L 183.85562 71.77504 
L 186.369324 73.595499 
L 189.07639 75.284724 
L 189.656475 75.615437 
L 189.849837 64.351507 
L 190.623284 68.87178 
L 191.20337 71.520012 
L 191.396732 64.881302 
L 192.363541 68.385729 
L 193.523712 71.701587 
L 194.29716 73.517334 
L 194.490521 65.244501 
L 195.844054 68.03359 
L 197.390949 70.677905 
L 198.937844 72.881947 
L 200.484739 74.746348 
L 200.678101 65.461588 
L 202.805081 67.814718 
L 204.932061 69.842344 
L 207.252403 71.756739 
L 209.766108 73.548977 
L 212.666535 75.32584 
L 212.859897 75.434606 
L 213.053259 67.557211 
L 213.826706 73.188605 
L 214.406792 76.180248 
L 214.600154 66.661389 
L 215.566963 70.669126 
L 216.533772 73.74548 
L 217.500582 76.180248 
L 217.693943 66.192598 
L 219.047476 69.199665 
L 220.401009 71.674011 
L 221.947904 74.013751 
L 223.494799 75.95969 
L 223.688161 76.180248 
L 223.881523 65.952945 
L 225.815141 68.195177 
L 227.942121 70.316342 
L 230.262464 72.302157 
L 232.776168 74.146075 
L 235.483234 75.847749 
L 236.063319 76.180248 
L 236.256681 59.780199 
L 237.610214 62.929412 
L 237.803576 60.81152 
L 239.350471 63.716417 
L 240.704003 65.90196 
L 240.897365 62.075401 
L 242.830984 64.690751 
L 244.764602 66.943001 
L 246.891583 69.084749 
L 247.084945 63.31245 
L 249.598649 65.499033 
L 252.305714 67.558401 
L 255.206142 69.486485 
L 258.299932 71.283881 
L 259.266741 71.798648 
L 259.460103 67.557211 
L 260.23355 73.188605 
L 260.813636 76.180248 
L 261.006998 66.661389 
L 261.973807 70.669126 
L 262.940616 73.74548 
L 263.907425 76.180248 
L 264.100787 66.192598 
L 265.45432 69.199665 
L 266.807853 71.674011 
L 268.354748 74.013751 
L 269.901643 75.95969 
L 270.095005 76.180248 
L 270.288366 65.952945 
L 272.221985 68.195177 
L 274.348965 70.316342 
L 276.669307 72.302157 
L 279.183012 74.146075 
L 281.890077 75.847749 
L 282.470163 76.180248 
L 282.663525 67.557211 
L 283.436972 73.188605 
L 284.017058 76.180248 
L 284.21042 66.661389 
L 285.177229 70.669126 
L 286.144038 73.74548 
L 287.110847 76.180248 
L 287.304209 66.192598 
L 288.657742 69.199665 
L 290.011275 71.674011 
L 291.55817 74.013751 
L 293.105065 75.95969 
L 293.298427 76.180248 
L 293.491788 65.952945 
L 295.425407 68.195177 
L 297.552387 70.316342 
L 299.872729 72.302157 
L 302.386433 74.146075 
L 305.093499 75.847749 
L 305.673585 76.180248 
L 305.866947 67.000782 
L 306.640394 72.476888 
L 307.22048 75.434606 
L 307.413842 66.393119 
L 308.380651 70.332759 
L 309.34746 73.377024 
L 310.314269 75.800037 
L 310.507631 66.061464 
L 311.861164 69.039864 
L 313.214697 71.497049 
L 314.761592 73.82672 
L 316.308487 75.768047 
L 316.501849 75.988158 
L 316.69521 65.888172 
L 318.628829 68.119145 
L 320.755809 70.232127 
L 323.076151 72.211593 
L 325.589855 74.051643 
L 328.296921 75.751432 
L 328.877007 76.083732 
L 329.070369 66.502629 
L 329.843816 71.827564 
L 330.423902 74.746348 
L 330.617264 66.139976 
L 331.584073 70.012858 
L 332.550882 73.024935 
L 333.517691 75.434606 
L 333.711053 65.934297 
L 335.064586 68.884824 
L 336.418119 71.324699 
L 337.965014 73.643658 
L 339.511909 75.579975 
L 339.70527 75.800037 
L 339.898632 65.824439 
L 341.832251 68.043906 
L 343.959231 70.148506 
L 346.279573 72.122071 
L 348.793277 73.958549 
L 351.500343 75.656156 
L 352.080429 75.988158 
L 352.273791 67.000782 
L 353.047238 72.476888 
L 353.627324 75.434606 
L 353.820685 66.393119 
L 354.787495 70.332759 
L 355.754304 73.377024 
L 356.721113 75.800037 
L 356.914475 66.061464 
L 358.268008 69.039864 
L 359.621541 71.497049 
L 361.168436 73.82672 
L 362.715331 75.768047 
L 362.908692 75.988158 
L 363.102054 65.888172 
L 365.035673 68.119145 
L 367.162653 70.232127 
L 369.482995 72.211593 
L 371.996699 74.051643 
L 374.703765 75.751432 
L 375.283851 76.083732 
L 375.477213 66.502629 
L 376.25066 71.827564 
L 376.830746 74.746348 
L 377.024107 66.139976 
L 377.990917 70.012858 
L 378.957726 73.024935 
L 379.924535 75.434606 
L 380.117897 65.934297 
L 381.47143 68.884824 
L 382.824963 71.324699 
L 384.371858 73.643658 
L 385.918753 75.579975 
L 386.112114 75.800037 
L 386.305476 65.824439 
L 388.239095 68.043906 
L 390.366075 70.148506 
L 392.686417 72.122071 
L 395.200121 73.958549 
L 397.907187 75.656156 
L 398.487273 75.988158 
L 398.487273 75.988158 
" style="fill:none;stroke:#1f77b4;stroke-linecap:square;stroke-width:1.5;"/>
   </g>
   <g id="line2d_16">
    <path clip-path="url(#pb0bc9605ef)" d="M 73.832727 108.107883 
L 74.219451 115.180716 
L 74.606175 121.490548 
L 74.799537 120.439587 
L 75.18626 109.837827 
L 75.379622 90.725318 
L 75.959708 95.365119 
L 76.539793 99.798547 
L 76.733155 99.156166 
L 76.926517 98.061114 
L 77.119879 97.643408 
L 77.313241 97.605119 
L 77.506602 96.549198 
L 77.699964 97.734914 
L 77.893326 97.580965 
L 78.28005 95.697965 
L 78.473412 75.146745 
L 78.860135 75.301488 
L 79.053497 75.310663 
L 79.246859 74.83969 
L 79.440221 73.973478 
L 80.213668 69.013329 
L 80.40703 68.767874 
L 80.793754 69.189746 
L 80.987116 69.838773 
L 81.373839 71.837483 
L 81.953925 75.98548 
L 82.727372 86.038102 
L 83.307458 94.782652 
L 83.694182 102.706718 
L 83.887543 107.963903 
L 84.080905 110.148999 
L 84.274267 107.787536 
L 84.467629 109.015707 
L 84.660991 78.89618 
L 85.047715 78.812957 
L 85.241076 78.493453 
L 85.434438 77.71959 
L 85.821162 74.493552 
L 86.594609 67.346622 
L 87.174695 64.311135 
L 87.561419 63.251892 
L 88.141504 62.715996 
L 88.334866 62.592003 
L 88.914952 63.036343 
L 89.108313 63.428259 
L 89.495037 63.56475 
L 89.881761 64.543299 
L 90.268484 64.782952 
L 90.655208 65.582555 
L 90.84857 65.635822 
L 91.235294 66.435475 
L 91.622017 67.612065 
L 91.815379 67.795127 
L 92.395465 69.09571 
L 92.588827 69.320385 
L 92.782189 69.925319 
L 93.555636 74.245567 
L 94.715807 81.298462 
L 95.489254 91.466694 
L 95.682616 94.523011 
L 96.262702 109.144659 
L 96.649426 134.156783 
L 96.842787 151.077501 
L 97.036149 94.262577 
L 97.616235 96.481796 
L 97.809597 96.656526 
L 98.002958 96.003333 
L 98.19632 94.904115 
L 98.389682 92.605045 
L 98.583044 70.081748 
L 99.16313 70.817322 
L 99.549853 70.940471 
L 99.743215 70.823968 
L 100.129939 70.091717 
L 100.710024 67.807626 
L 101.483472 63.994954 
L 101.676834 50.353492 
L 102.450281 50.727106 
L 102.643643 50.653058 
L 103.030367 50.162097 
L 103.803814 48.846536 
L 104.190538 48.482941 
L 104.770623 48.487107 
L 105.350709 49.330008 
L 106.124156 50.433393 
L 107.090965 52.475352 
L 107.284327 52.75741 
L 107.671051 52.913839 
L 107.864413 52.05095 
L 108.444498 52.170777 
L 108.831222 52.002692 
L 109.217946 51.377819 
L 110.958202 47.560982 
L 111.538288 47.155724 
L 111.925012 47.085842 
L 112.118373 47.171546 
L 112.311735 46.970182 
L 112.505097 46.981837 
L 112.891821 47.405346 
L 113.471906 47.526016 
L 114.245354 48.33896 
L 114.632078 48.987987 
L 115.405525 49.696976 
L 115.792249 49.887528 
L 117.919229 51.669053 
L 118.305953 52.442866 
L 118.499315 52.576034 
L 119.272762 53.84914 
L 119.659486 54.293479 
L 120.046209 55.286164 
L 120.239571 108.107883 
L 120.819657 111.36973 
L 121.013019 111.268205 
L 121.20638 110.045837 
L 121.399742 108.002192 
L 121.593104 104.531491 
L 121.786466 90.725318 
L 122.366552 92.535956 
L 122.559913 92.692385 
L 122.753275 92.506843 
L 122.946637 91.900222 
L 123.333361 89.578684 
L 124.686894 79.334717 
L 124.880256 75.146745 
L 125.266979 75.331444 
L 125.460341 75.34062 
L 125.653703 75.115945 
L 125.847065 74.620025 
L 126.233789 72.65628 
L 127.007236 68.224489 
L 127.39396 66.874012 
L 127.780683 66.568593 
L 128.167407 66.755028 
L 128.747493 68.722096 
L 129.327578 70.404575 
L 129.714302 71.861587 
L 130.101026 73.990093 
L 130.874473 76.029572 
L 131.067835 78.89618 
L 131.454558 78.865381 
L 131.64792 78.738065 
L 131.841282 78.407749 
L 132.228006 76.776801 
L 132.808091 72.414941 
L 133.581539 66.982183 
L 133.968262 65.292164 
L 134.548348 63.882617 
L 134.74171 63.681253 
L 135.321795 63.956665 
L 135.708519 63.574719 
L 136.095243 64.614867 
L 136.288605 64.582381 
L 136.481967 64.845345 
L 136.675328 64.858637 
L 137.062052 65.396169 
L 137.255414 65.491891 
L 137.835499 66.905605 
L 138.222223 67.105332 
L 138.608947 67.85752 
L 139.189032 68.077235 
L 139.769118 69.425233 
L 140.735927 71.255016 
L 140.929289 71.422257 
L 141.316013 72.404129 
L 141.509375 73.238748 
L 141.702736 73.523286 
L 142.476184 75.955524 
L 142.669546 76.111953 
L 143.249631 77.590638 
L 143.442993 100.237877 
L 144.023079 103.046209 
L 144.216441 103.18518 
L 144.409802 102.324771 
L 144.603164 100.82952 
L 144.796526 97.931318 
L 144.989888 79.788183 
L 145.569973 81.181958 
L 145.763335 81.37003 
L 145.956697 81.328418 
L 146.150059 80.976428 
L 146.536783 79.414568 
L 147.890316 71.061141 
L 148.083678 61.962964 
L 148.663763 62.292437 
L 148.857125 62.253355 
L 149.050487 61.995401 
L 149.43721 60.838798 
L 150.210658 57.943076 
L 150.597382 56.973653 
L 150.984105 56.915426 
L 151.177467 56.938736 
L 151.370829 57.190838 
L 152.337638 59.674657 
L 152.531 60.009189 
L 153.691171 64.03736 
L 153.884533 64.171321 
L 154.077895 64.589077 
L 154.271257 60.302059 
L 154.851342 60.332859 
L 155.044704 60.220522 
L 155.431428 59.50077 
L 156.011513 57.281551 
L 156.784961 54.05715 
L 157.365046 52.515277 
L 157.75177 51.822953 
L 158.138494 51.645743 
L 158.331856 51.588309 
L 158.525217 51.680708 
L 158.911941 51.48847 
L 159.298665 52.273145 
L 159.87875 52.441229 
L 160.265474 52.81901 
L 160.458836 52.978762 
L 161.038921 54.414943 
L 161.425645 54.606337 
L 161.812369 55.388532 
L 162.392454 55.765469 
L 162.585816 56.028433 
L 162.779178 56.532636 
L 162.97254 56.588433 
L 163.359264 57.00113 
L 163.552625 57.441303 
L 163.745987 57.545308 
L 164.132711 58.037112 
L 164.519435 58.824266 
L 164.712797 59.489958 
L 164.906158 59.674657 
L 165.679606 61.457025 
L 165.872968 61.566882 
L 166.259691 62.409784 
L 166.453053 62.936504 
L 166.646415 98.017816 
L 167.226501 100.5674 
L 167.419862 100.673042 
L 167.613224 99.857617 
L 167.806586 98.532087 
L 167.999948 95.935931 
L 168.19331 74.467762 
L 168.773395 75.48207 
L 168.966757 75.626001 
L 169.160119 75.619355 
L 169.353481 75.455437 
L 169.546843 75.112622 
L 169.933567 73.714681 
L 170.513652 70.732461 
L 171.093738 67.488072 
L 171.287099 56.598402 
L 171.867185 57.011942 
L 172.060547 57.036095 
L 172.253909 56.905457 
L 172.640632 56.184019 
L 173.41408 54.309301 
L 173.800804 53.788383 
L 174.380889 53.652785 
L 175.347698 55.31612 
L 176.121146 56.954558 
L 176.894593 58.914979 
L 177.087955 58.939084 
L 177.281317 59.1463 
L 177.474679 63.077112 
L 178.054764 63.109598 
L 178.248126 62.958128 
L 178.63485 62.111904 
L 179.214935 59.764527 
L 179.988383 56.658315 
L 180.568468 55.270342 
L 180.955192 54.872624 
L 181.148554 54.852636 
L 181.728639 55.376877 
L 181.922001 55.107267 
L 182.115363 55.050677 
L 182.502087 55.70387 
L 182.695449 55.771272 
L 182.88881 55.694744 
L 183.468896 56.193988 
L 183.85562 56.826399 
L 184.242343 57.729214 
L 185.015791 58.587937 
L 185.402514 58.748532 
L 185.789238 59.037286 
L 185.9826 59.412537 
L 186.369324 59.593119 
L 186.756047 60.085717 
L 186.949409 60.092363 
L 187.336133 60.431904 
L 187.722857 61.273119 
L 187.916219 61.744936 
L 188.10958 61.842295 
L 188.883028 63.550614 
L 189.07639 63.698711 
L 189.656475 65.079145 
L 189.849837 108.107883 
L 190.429923 111.776624 
L 190.623284 110.739798 
L 191.20337 102.442961 
L 191.396732 90.725318 
L 191.976817 92.599192 
L 192.363541 93.151703 
L 192.556903 93.049384 
L 193.136988 90.47401 
L 193.523712 90.741933 
L 194.103798 95.550661 
L 194.29716 96.625726 
L 194.490521 75.146745 
L 195.070607 75.424637 
L 195.457331 75.30982 
L 195.844054 74.909572 
L 196.230778 74.857148 
L 196.617502 75.386398 
L 197.004225 76.490576 
L 197.971035 80.569534 
L 198.55112 83.631654 
L 200.098015 92.273836 
L 200.484739 93.289831 
L 200.678101 78.89618 
L 201.258186 78.842913 
L 201.64491 78.448518 
L 202.031634 77.805294 
L 202.611719 76.154408 
L 203.385166 73.952697 
L 204.158614 72.496479 
L 204.932061 71.611122 
L 205.512147 71.170949 
L 206.092232 71.030341 
L 206.672318 71.237508 
L 207.445765 71.750936 
L 208.025851 72.477384 
L 209.186022 74.344612 
L 210.539555 77.120458 
L 211.893088 81.177792 
L 212.473173 83.578387 
L 212.859897 85.691121 
L 213.053259 108.107883 
L 213.439983 115.062575 
L 213.826706 120.540269 
L 214.020068 118.930151 
L 214.406792 108.408242 
L 214.600154 90.725318 
L 214.986877 94.742676 
L 215.953687 107.993066 
L 216.147049 108.304238 
L 216.34041 108.831801 
L 216.533772 109.817839 
L 216.727134 110.132384 
L 217.113858 112.381559 
L 217.500582 107.174269 
L 217.693943 75.146745 
L 217.887305 75.265728 
L 218.080667 75.554482 
L 218.854114 77.420867 
L 219.240838 78.143149 
L 219.4342 78.597458 
L 219.820924 80.394804 
L 220.401009 84.367228 
L 220.981095 89.078597 
L 221.56118 95.433315 
L 222.334628 107.565341 
L 223.301437 123.034106 
L 223.494799 122.339301 
L 223.688161 120.779078 
L 223.881523 78.89618 
L 224.461608 78.921971 
L 224.848332 78.594978 
L 225.235055 77.997532 
L 225.621779 77.035598 
L 226.395227 74.635846 
L 227.168674 73.183 
L 227.74876 72.434929 
L 228.522207 71.878252 
L 229.102292 71.814172 
L 229.489016 71.996392 
L 230.262464 72.693726 
L 230.842549 73.549126 
L 231.422635 75.066844 
L 232.00272 77.066398 
L 232.582806 79.678375 
L 233.549615 84.880656 
L 233.936339 88.634258 
L 234.709786 98.958125 
L 235.09651 106.867213 
L 235.289872 110.828032 
L 235.676595 128.874602 
L 236.063319 156.933818 
L 236.256681 94.262577 
L 236.836766 96.524201 
L 237.030128 96.800457 
L 237.22349 96.207177 
L 237.416852 95.078845 
L 237.610214 92.823867 
L 237.803576 70.081748 
L 238.383661 70.869746 
L 238.770385 71.21256 
L 238.963747 71.269151 
L 239.157109 71.195102 
L 239.350471 70.974594 
L 239.737194 69.944464 
L 240.31728 67.722716 
L 240.704003 65.639988 
L 240.897365 50.353492 
L 241.864175 50.898514 
L 242.250898 50.881849 
L 243.604431 50.55069 
L 244.184517 50.864391 
L 244.764602 51.449338 
L 245.731412 52.913046 
L 246.311497 53.696877 
L 246.891583 54.02139 
L 247.084945 52.05095 
L 248.245116 52.25901 
L 248.825201 52.061812 
L 249.598649 51.237162 
L 250.565458 50.197063 
L 251.338905 49.615439 
L 252.112353 49.28175 
L 252.692438 49.220994 
L 253.272524 49.361601 
L 254.045971 49.790963 
L 255.592866 51.032475 
L 256.559675 52.024366 
L 257.333123 53.237559 
L 258.880017 56.116616 
L 259.266741 57.089313 
L 259.460103 108.107883 
L 260.040188 111.072644 
L 260.23355 111.202439 
L 260.426912 109.913512 
L 260.620274 107.198373 
L 260.813636 102.199142 
L 261.006998 90.725318 
L 261.587083 93.675944 
L 262.553892 99.597977 
L 262.747254 99.603829 
L 262.940616 99.248516 
L 263.133978 98.485466 
L 263.520702 95.345131 
L 263.907425 88.033489 
L 264.100787 75.146745 
L 264.680873 75.554482 
L 265.260958 76.156887 
L 266.034406 76.821735 
L 266.421129 77.630564 
L 267.001215 79.635077 
L 267.774662 83.300495 
L 268.54811 88.081747 
L 269.321557 93.395522 
L 269.708281 94.959019 
L 269.901643 94.938237 
L 270.095005 94.215162 
L 270.288366 78.89618 
L 271.061814 78.834581 
L 271.448538 78.530898 
L 271.835261 77.951754 
L 272.221985 77.028109 
L 273.188794 74.456106 
L 273.962242 72.984116 
L 274.929051 71.820025 
L 275.509136 71.404799 
L 276.089222 71.313242 
L 276.669307 71.488816 
L 277.249393 71.83664 
L 277.829479 72.54062 
L 278.602926 73.951854 
L 279.376373 75.866497 
L 279.956459 77.720433 
L 280.536544 80.246658 
L 281.309992 84.853179 
L 282.470163 92.471877 
L 282.663525 108.107883 
L 283.24361 111.749147 
L 283.436972 112.062849 
L 283.630334 111.10508 
L 283.823696 109.321076 
L 284.017058 106.075893 
L 284.21042 90.725318 
L 284.983867 93.247425 
L 285.177229 93.596043 
L 285.370591 93.70342 
L 285.563953 93.546942 
L 285.757314 93.071852 
L 286.724124 88.779875 
L 287.110847 86.216155 
L 287.304209 75.146745 
L 288.077657 75.540297 
L 288.46438 75.45876 
L 289.43119 74.680781 
L 289.817913 74.7831 
L 290.204637 75.176702 
L 290.784723 76.173552 
L 291.364808 77.611419 
L 292.138255 80.012857 
L 293.298427 83.948678 
L 293.491788 78.89618 
L 294.071874 78.871233 
L 294.458598 78.637383 
L 294.845321 78.158921 
L 295.232045 77.375933 
L 296.77894 73.30863 
L 297.359025 72.309299 
L 298.325835 71.185927 
L 298.90592 70.849758 
L 299.486006 70.823968 
L 300.259453 71.103546 
L 301.032901 71.74429 
L 302.193072 73.153837 
L 302.966519 74.325468 
L 303.933328 76.244277 
L 304.706776 78.126484 
L 305.673585 81.152845 
L 305.866947 100.237877 
L 306.447032 103.184337 
L 306.640394 103.495558 
L 306.833756 102.75081 
L 307.027118 101.231405 
L 307.22048 98.458832 
L 307.413842 79.788183 
L 307.993927 81.303421 
L 308.380651 81.93003 
L 308.574013 82.001599 
L 308.767375 81.8784 
L 308.960736 81.520607 
L 309.734184 78.527575 
L 310.120907 76.429026 
L 310.314269 75.200806 
L 310.507631 61.962964 
L 311.281079 62.466374 
L 311.667802 62.487998 
L 312.827973 61.962121 
L 313.214697 62.176777 
L 313.794783 62.890726 
L 314.374868 63.919219 
L 315.341677 66.307316 
L 316.115125 68.191209 
L 316.501849 68.80279 
L 316.69521 60.302059 
L 317.66202 60.359493 
L 318.048743 60.203907 
L 318.435467 59.846907 
L 320.755809 56.381216 
L 321.529257 55.798749 
L 322.109342 55.582407 
L 322.689428 55.608197 
L 323.462875 55.941043 
L 324.236322 56.52599 
L 325.396494 57.744192 
L 326.363303 59.055587 
L 327.716836 61.395475 
L 328.683645 63.64961 
L 328.877007 64.197955 
L 329.070369 98.017816 
L 329.650454 100.634802 
L 329.843816 100.910215 
L 330.037178 100.194629 
L 330.23054 98.863246 
L 330.423902 96.338659 
L 330.617264 74.467762 
L 331.197349 75.550316 
L 331.584073 76.002988 
L 331.777435 76.087848 
L 331.970796 76.017123 
L 332.164158 75.763335 
L 332.550882 74.54181 
L 333.324329 70.836466 
L 333.517691 69.685667 
L 333.711053 56.598402 
L 334.677862 57.274905 
L 335.064586 57.241625 
L 336.224757 56.794756 
L 336.611481 56.956195 
L 337.191566 57.417992 
L 337.771652 58.196864 
L 338.545099 59.58811 
L 339.125185 60.55421 
L 339.511909 60.857099 
L 339.70527 60.912003 
L 339.898632 63.077112 
L 340.67208 63.188606 
L 341.252165 63.00475 
L 341.638889 62.651916 
L 342.412336 61.38878 
L 343.379146 59.9709 
L 344.152593 59.199517 
L 344.92604 58.75855 
L 345.506126 58.716095 
L 346.086211 58.934917 
L 346.859659 59.476616 
L 348.793277 61.311408 
L 349.566725 62.349027 
L 350.533534 64.24041 
L 351.500343 66.457942 
L 352.080429 68.121327 
L 352.273791 100.237877 
L 352.660514 106.28306 
L 353.047238 111.393834 
L 353.2406 109.785403 
L 353.627324 100.353538 
L 353.820685 79.788183 
L 354.207409 82.909373 
L 355.174218 93.284028 
L 355.560942 93.090947 
L 355.754304 93.765813 
L 355.947666 93.448789 
L 356.141028 94.895782 
L 356.33439 95.216973 
L 356.721113 89.283284 
L 356.914475 61.962964 
L 357.107837 62.060323 
L 357.494561 62.701861 
L 358.074646 63.7062 
L 358.268008 63.90925 
L 358.654732 64.707217 
L 359.234817 67.143621 
L 360.201627 73.423447 
L 360.781712 78.644029 
L 361.555159 88.752398 
L 362.135245 95.594753 
L 362.521969 98.316538 
L 362.908692 95.06471 
L 363.102054 60.302059 
L 364.068864 60.406907 
L 364.455587 60.163088 
L 364.842311 59.667168 
L 365.80912 57.779158 
L 366.582568 56.897125 
L 367.356015 56.44113 
L 367.9361 56.323783 
L 368.516186 56.397038 
L 369.289633 56.892115 
L 369.869719 57.509549 
L 370.256443 58.125296 
L 371.02989 59.96842 
L 371.803337 62.64775 
L 372.963509 67.749349 
L 373.930318 76.616205 
L 374.317042 81.826025 
L 374.510403 84.178362 
L 374.897127 96.286235 
L 375.283851 118.182129 
L 375.477213 98.017816 
L 375.863936 103.783469 
L 376.25066 108.523109 
L 376.444022 106.954603 
L 376.637384 100.954306 
L 376.830746 98.479663 
L 377.024107 74.467762 
L 377.410831 77.000632 
L 378.37764 86.271059 
L 378.764364 86.366781 
L 378.957726 87.328666 
L 379.151088 87.024983 
L 379.34445 88.239813 
L 379.537811 88.004326 
L 379.924535 84.451295 
L 380.117897 56.598402 
L 380.504621 56.952872 
L 381.278068 58.366585 
L 381.47143 58.543845 
L 381.858154 59.263597 
L 382.438239 61.00351 
L 383.211687 64.47173 
L 383.985134 69.391953 
L 384.371858 72.737818 
L 385.532029 84.858982 
L 385.725391 86.200334 
L 385.918753 84.394704 
L 386.112114 80.557879 
L 386.305476 63.077112 
L 387.078924 63.26935 
L 387.465647 63.157012 
L 387.852371 62.813355 
L 388.239095 62.220918 
L 389.205904 60.664018 
L 390.366075 59.836938 
L 390.752799 59.743746 
L 391.332884 59.818637 
L 391.719608 60.020844 
L 392.686417 60.878724 
L 393.846588 62.712673 
L 394.813398 65.136578 
L 395.780207 68.852734 
L 396.360292 73.16217 
L 397.327102 83.282987 
L 397.907187 94.251765 
L 398.100549 100.39515 
L 398.487273 124.689109 
L 398.487273 124.689109 
" style="fill:none;stroke:#ff7f0e;stroke-linecap:square;stroke-width:1.5;"/>
   </g>
   <g id="patch_3">
    <path d="M 57.6 162.432 
L 57.6 41.472 
" style="fill:none;stroke:#000000;stroke-linecap:square;stroke-linejoin:miter;stroke-width:0.8;"/>
   </g>
   <g id="patch_4">
    <path d="M 414.72 162.432 
L 414.72 41.472 
" style="fill:none;stroke:#000000;stroke-linecap:square;stroke-linejoin:miter;stroke-width:0.8;"/>
   </g>
   <g id="patch_5">
    <path d="M 57.6 162.432 
L 414.72 162.432 
" style="fill:none;stroke:#000000;stroke-linecap:square;stroke-linejoin:miter;stroke-width:0.8;"/>
   </g>
   <g id="patch_6">
    <path d="M 57.6 41.472 
L 414.72 41.472 
" style="fill:none;stroke:#000000;stroke-linecap:square;stroke-linejoin:miter;stroke-width:0.8;"/>
   </g>
   <g id="legend_1">
    <g id="patch_7">
     <path d="M 64.6 157.432 
L 129.582812 157.432 
Q 131.582812 157.432 131.582812 155.432 
L 131.582812 127.07575 
Q 131.582812 125.07575 129.582812 125.07575 
L 64.6 125.07575 
Q 62.6 125.07575 62.6 127.07575 
L 62.6 155.432 
Q 62.6 157.432 64.6 157.432 
z
" style="fill:#ffffff;opacity:0.8;stroke:#cccccc;stroke-linejoin:miter;"/>
    </g>
    <g id="line2d_17">
     <path d="M 66.6 133.174187 
L 86.6 133.174187 
" style="fill:none;stroke:#1f77b4;stroke-linecap:square;stroke-width:1.5;"/>
    </g>
    <g id="line2d_18"/>
    <g id="text_15">
     <!-- output -->
     <defs>
      <path d="M 30.609375 48.390625 
Q 23.390625 48.390625 19.1875 42.75 
Q 14.984375 37.109375 14.984375 27.296875 
Q 14.984375 17.484375 19.15625 11.84375 
Q 23.34375 6.203125 30.609375 6.203125 
Q 37.796875 6.203125 41.984375 11.859375 
Q 46.1875 17.53125 46.1875 27.296875 
Q 46.1875 37.015625 41.984375 42.703125 
Q 37.796875 48.390625 30.609375 48.390625 
z
M 30.609375 56 
Q 42.328125 56 49.015625 48.375 
Q 55.71875 40.765625 55.71875 27.296875 
Q 55.71875 13.875 49.015625 6.21875 
Q 42.328125 -1.421875 30.609375 -1.421875 
Q 18.84375 -1.421875 12.171875 6.21875 
Q 5.515625 13.875 5.515625 27.296875 
Q 5.515625 40.765625 12.171875 48.375 
Q 18.84375 56 30.609375 56 
z
" id="DejaVuSans-111"/>
      <path d="M 8.5 21.578125 
L 8.5 54.6875 
L 17.484375 54.6875 
L 17.484375 21.921875 
Q 17.484375 14.15625 20.5 10.265625 
Q 23.53125 6.390625 29.59375 6.390625 
Q 36.859375 6.390625 41.078125 11.03125 
Q 45.3125 15.671875 45.3125 23.6875 
L 45.3125 54.6875 
L 54.296875 54.6875 
L 54.296875 0 
L 45.3125 0 
L 45.3125 8.40625 
Q 42.046875 3.421875 37.71875 1 
Q 33.40625 -1.421875 27.6875 -1.421875 
Q 18.265625 -1.421875 13.375 4.4375 
Q 8.5 10.296875 8.5 21.578125 
z
M 31.109375 56 
z
" id="DejaVuSans-117"/>
      <path d="M 18.3125 70.21875 
L 18.3125 54.6875 
L 36.8125 54.6875 
L 36.8125 47.703125 
L 18.3125 47.703125 
L 18.3125 18.015625 
Q 18.3125 11.328125 20.140625 9.421875 
Q 21.96875 7.515625 27.59375 7.515625 
L 36.8125 7.515625 
L 36.8125 0 
L 27.59375 0 
Q 17.1875 0 13.234375 3.875 
Q 9.28125 7.765625 9.28125 18.015625 
L 9.28125 47.703125 
L 2.6875 47.703125 
L 2.6875 54.6875 
L 9.28125 54.6875 
L 9.28125 70.21875 
z
" id="DejaVuSans-116"/>
      <path d="M 18.109375 8.203125 
L 18.109375 -20.796875 
L 9.078125 -20.796875 
L 9.078125 54.6875 
L 18.109375 54.6875 
L 18.109375 46.390625 
Q 20.953125 51.265625 25.265625 53.625 
Q 29.59375 56 35.59375 56 
Q 45.5625 56 51.78125 48.09375 
Q 58.015625 40.1875 58.015625 27.296875 
Q 58.015625 14.40625 51.78125 6.484375 
Q 45.5625 -1.421875 35.59375 -1.421875 
Q 29.59375 -1.421875 25.265625 0.953125 
Q 20.953125 3.328125 18.109375 8.203125 
z
M 48.6875 27.296875 
Q 48.6875 37.203125 44.609375 42.84375 
Q 40.53125 48.484375 33.40625 48.484375 
Q 26.265625 48.484375 22.1875 42.84375 
Q 18.109375 37.203125 18.109375 27.296875 
Q 18.109375 17.390625 22.1875 11.75 
Q 26.265625 6.109375 33.40625 6.109375 
Q 40.53125 6.109375 44.609375 11.75 
Q 48.6875 17.390625 48.6875 27.296875 
z
" id="DejaVuSans-112"/>
     </defs>
     <g transform="translate(94.6 136.674187)scale(0.1 -0.1)">
      <use xlink:href="#DejaVuSans-111"/>
      <use x="61.181641" xlink:href="#DejaVuSans-117"/>
      <use x="124.560547" xlink:href="#DejaVuSans-116"/>
      <use x="163.769531" xlink:href="#DejaVuSans-112"/>
      <use x="227.246094" xlink:href="#DejaVuSans-117"/>
      <use x="290.625" xlink:href="#DejaVuSans-116"/>
     </g>
    </g>
    <g id="line2d_19">
     <path d="M 66.6 147.852312 
L 86.6 147.852312 
" style="fill:none;stroke:#ff7f0e;stroke-linecap:square;stroke-width:1.5;"/>
    </g>
    <g id="line2d_20"/>
    <g id="text_16">
     <!-- true -->
     <defs>
      <path d="M 41.109375 46.296875 
Q 39.59375 47.171875 37.8125 47.578125 
Q 36.03125 48 33.890625 48 
Q 26.265625 48 22.1875 43.046875 
Q 18.109375 38.09375 18.109375 28.8125 
L 18.109375 0 
L 9.078125 0 
L 9.078125 54.6875 
L 18.109375 54.6875 
L 18.109375 46.1875 
Q 20.953125 51.171875 25.484375 53.578125 
Q 30.03125 56 36.53125 56 
Q 37.453125 56 38.578125 55.875 
Q 39.703125 55.765625 41.0625 55.515625 
z
" id="DejaVuSans-114"/>
      <path d="M 56.203125 29.59375 
L 56.203125 25.203125 
L 14.890625 25.203125 
Q 15.484375 15.921875 20.484375 11.0625 
Q 25.484375 6.203125 34.421875 6.203125 
Q 39.59375 6.203125 44.453125 7.46875 
Q 49.3125 8.734375 54.109375 11.28125 
L 54.109375 2.78125 
Q 49.265625 0.734375 44.1875 -0.34375 
Q 39.109375 -1.421875 33.890625 -1.421875 
Q 20.796875 -1.421875 13.15625 6.1875 
Q 5.515625 13.8125 5.515625 26.8125 
Q 5.515625 40.234375 12.765625 48.109375 
Q 20.015625 56 32.328125 56 
Q 43.359375 56 49.78125 48.890625 
Q 56.203125 41.796875 56.203125 29.59375 
z
M 47.21875 32.234375 
Q 47.125 39.59375 43.09375 43.984375 
Q 39.0625 48.390625 32.421875 48.390625 
Q 24.90625 48.390625 20.390625 44.140625 
Q 15.875 39.890625 15.1875 32.171875 
z
" id="DejaVuSans-101"/>
     </defs>
     <g transform="translate(94.6 151.352312)scale(0.1 -0.1)">
      <use xlink:href="#DejaVuSans-116"/>
      <use x="39.208984" xlink:href="#DejaVuSans-114"/>
      <use x="80.322266" xlink:href="#DejaVuSans-117"/>
      <use x="143.701172" xlink:href="#DejaVuSans-101"/>
     </g>
    </g>
   </g>
  </g>
  <g id="axes_2">
   <g id="patch_8">
    <path d="M 57.6 307.584 
L 414.72 307.584 
L 414.72 186.624 
L 57.6 186.624 
z
" style="fill:#ffffff;"/>
   </g>
   <g id="matplotlib.axis_3">
    <g id="xtick_9">
     <g id="line2d_21">
      <g>
       <use style="stroke:#000000;stroke-width:0.8;" x="73.832727" xlink:href="#ma5ea8df7d6" y="307.584"/>
      </g>
     </g>
     <g id="text_17">
      <!-- 0 -->
      <g transform="translate(70.651477 322.182437)scale(0.1 -0.1)">
       <use xlink:href="#DejaVuSans-48"/>
      </g>
     </g>
    </g>
    <g id="xtick_10">
     <g id="line2d_22">
      <g>
       <use style="stroke:#000000;stroke-width:0.8;" x="122.17319" xlink:href="#ma5ea8df7d6" y="307.584"/>
      </g>
     </g>
     <g id="text_18">
      <!-- 250 -->
      <g transform="translate(112.62944 322.182437)scale(0.1 -0.1)">
       <use xlink:href="#DejaVuSans-50"/>
       <use x="63.623047" xlink:href="#DejaVuSans-53"/>
       <use x="127.246094" xlink:href="#DejaVuSans-48"/>
      </g>
     </g>
    </g>
    <g id="xtick_11">
     <g id="line2d_23">
      <g>
       <use style="stroke:#000000;stroke-width:0.8;" x="170.513652" xlink:href="#ma5ea8df7d6" y="307.584"/>
      </g>
     </g>
     <g id="text_19">
      <!-- 500 -->
      <g transform="translate(160.969902 322.182437)scale(0.1 -0.1)">
       <use xlink:href="#DejaVuSans-53"/>
       <use x="63.623047" xlink:href="#DejaVuSans-48"/>
       <use x="127.246094" xlink:href="#DejaVuSans-48"/>
      </g>
     </g>
    </g>
    <g id="xtick_12">
     <g id="line2d_24">
      <g>
       <use style="stroke:#000000;stroke-width:0.8;" x="218.854114" xlink:href="#ma5ea8df7d6" y="307.584"/>
      </g>
     </g>
     <g id="text_20">
      <!-- 750 -->
      <g transform="translate(209.310364 322.182437)scale(0.1 -0.1)">
       <use xlink:href="#DejaVuSans-55"/>
       <use x="63.623047" xlink:href="#DejaVuSans-53"/>
       <use x="127.246094" xlink:href="#DejaVuSans-48"/>
      </g>
     </g>
    </g>
    <g id="xtick_13">
     <g id="line2d_25">
      <g>
       <use style="stroke:#000000;stroke-width:0.8;" x="267.194577" xlink:href="#ma5ea8df7d6" y="307.584"/>
      </g>
     </g>
     <g id="text_21">
      <!-- 1000 -->
      <g transform="translate(254.469577 322.182437)scale(0.1 -0.1)">
       <use xlink:href="#DejaVuSans-49"/>
       <use x="63.623047" xlink:href="#DejaVuSans-48"/>
       <use x="127.246094" xlink:href="#DejaVuSans-48"/>
       <use x="190.869141" xlink:href="#DejaVuSans-48"/>
      </g>
     </g>
    </g>
    <g id="xtick_14">
     <g id="line2d_26">
      <g>
       <use style="stroke:#000000;stroke-width:0.8;" x="315.535039" xlink:href="#ma5ea8df7d6" y="307.584"/>
      </g>
     </g>
     <g id="text_22">
      <!-- 1250 -->
      <g transform="translate(302.810039 322.182437)scale(0.1 -0.1)">
       <use xlink:href="#DejaVuSans-49"/>
       <use x="63.623047" xlink:href="#DejaVuSans-50"/>
       <use x="127.246094" xlink:href="#DejaVuSans-53"/>
       <use x="190.869141" xlink:href="#DejaVuSans-48"/>
      </g>
     </g>
    </g>
    <g id="xtick_15">
     <g id="line2d_27">
      <g>
       <use style="stroke:#000000;stroke-width:0.8;" x="363.875502" xlink:href="#ma5ea8df7d6" y="307.584"/>
      </g>
     </g>
     <g id="text_23">
      <!-- 1500 -->
      <g transform="translate(351.150502 322.182437)scale(0.1 -0.1)">
       <use xlink:href="#DejaVuSans-49"/>
       <use x="63.623047" xlink:href="#DejaVuSans-53"/>
       <use x="127.246094" xlink:href="#DejaVuSans-48"/>
       <use x="190.869141" xlink:href="#DejaVuSans-48"/>
      </g>
     </g>
    </g>
    <g id="xtick_16">
     <g id="line2d_28">
      <g>
       <use style="stroke:#000000;stroke-width:0.8;" x="412.215964" xlink:href="#ma5ea8df7d6" y="307.584"/>
      </g>
     </g>
     <g id="text_24">
      <!-- 1750 -->
      <g transform="translate(399.490964 322.182437)scale(0.1 -0.1)">
       <use xlink:href="#DejaVuSans-49"/>
       <use x="63.623047" xlink:href="#DejaVuSans-55"/>
       <use x="127.246094" xlink:href="#DejaVuSans-53"/>
       <use x="190.869141" xlink:href="#DejaVuSans-48"/>
      </g>
     </g>
    </g>
   </g>
   <g id="matplotlib.axis_4">
    <g id="ytick_7">
     <g id="line2d_29">
      <g>
       <use style="stroke:#000000;stroke-width:0.8;" x="57.6" xlink:href="#md34119e008" y="302.085818"/>
      </g>
     </g>
     <g id="text_25">
      <!-- 0.0 -->
      <g transform="translate(34.696875 305.885037)scale(0.1 -0.1)">
       <use xlink:href="#DejaVuSans-48"/>
       <use x="63.623047" xlink:href="#DejaVuSans-46"/>
       <use x="95.410156" xlink:href="#DejaVuSans-48"/>
      </g>
     </g>
    </g>
    <g id="ytick_8">
     <g id="line2d_30">
      <g>
       <use style="stroke:#000000;stroke-width:0.8;" x="57.6" xlink:href="#md34119e008" y="265.106346"/>
      </g>
     </g>
     <g id="text_26">
      <!-- 0.1 -->
      <g transform="translate(34.696875 268.905565)scale(0.1 -0.1)">
       <use xlink:href="#DejaVuSans-48"/>
       <use x="63.623047" xlink:href="#DejaVuSans-46"/>
       <use x="95.410156" xlink:href="#DejaVuSans-49"/>
      </g>
     </g>
    </g>
    <g id="ytick_9">
     <g id="line2d_31">
      <g>
       <use style="stroke:#000000;stroke-width:0.8;" x="57.6" xlink:href="#md34119e008" y="228.126874"/>
      </g>
     </g>
     <g id="text_27">
      <!-- 0.2 -->
      <g transform="translate(34.696875 231.926093)scale(0.1 -0.1)">
       <use xlink:href="#DejaVuSans-48"/>
       <use x="63.623047" xlink:href="#DejaVuSans-46"/>
       <use x="95.410156" xlink:href="#DejaVuSans-50"/>
      </g>
     </g>
    </g>
    <g id="ytick_10">
     <g id="line2d_32">
      <g>
       <use style="stroke:#000000;stroke-width:0.8;" x="57.6" xlink:href="#md34119e008" y="191.147402"/>
      </g>
     </g>
     <g id="text_28">
      <!-- 0.3 -->
      <defs>
       <path d="M 40.578125 39.3125 
Q 47.65625 37.796875 51.625 33 
Q 55.609375 28.21875 55.609375 21.1875 
Q 55.609375 10.40625 48.1875 4.484375 
Q 40.765625 -1.421875 27.09375 -1.421875 
Q 22.515625 -1.421875 17.65625 -0.515625 
Q 12.796875 0.390625 7.625 2.203125 
L 7.625 11.71875 
Q 11.71875 9.328125 16.59375 8.109375 
Q 21.484375 6.890625 26.8125 6.890625 
Q 36.078125 6.890625 40.9375 10.546875 
Q 45.796875 14.203125 45.796875 21.1875 
Q 45.796875 27.640625 41.28125 31.265625 
Q 36.765625 34.90625 28.71875 34.90625 
L 20.21875 34.90625 
L 20.21875 43.015625 
L 29.109375 43.015625 
Q 36.375 43.015625 40.234375 45.921875 
Q 44.09375 48.828125 44.09375 54.296875 
Q 44.09375 59.90625 40.109375 62.90625 
Q 36.140625 65.921875 28.71875 65.921875 
Q 24.65625 65.921875 20.015625 65.03125 
Q 15.375 64.15625 9.8125 62.3125 
L 9.8125 71.09375 
Q 15.4375 72.65625 20.34375 73.4375 
Q 25.25 74.21875 29.59375 74.21875 
Q 40.828125 74.21875 47.359375 69.109375 
Q 53.90625 64.015625 53.90625 55.328125 
Q 53.90625 49.265625 50.4375 45.09375 
Q 46.96875 40.921875 40.578125 39.3125 
z
" id="DejaVuSans-51"/>
      </defs>
      <g transform="translate(34.696875 194.94662)scale(0.1 -0.1)">
       <use xlink:href="#DejaVuSans-48"/>
       <use x="63.623047" xlink:href="#DejaVuSans-46"/>
       <use x="95.410156" xlink:href="#DejaVuSans-51"/>
      </g>
     </g>
    </g>
   </g>
   <g id="line2d_33">
    <path clip-path="url(#pa4199aa227)" d="M 73.832727 302.085818 
L 398.487273 302.085818 
L 398.487273 302.085818 
" style="fill:none;stroke:#1f77b4;stroke-linecap:square;stroke-width:1.5;"/>
   </g>
   <g id="line2d_34">
    <path clip-path="url(#pa4199aa227)" d="M 73.832727 194.171952 
L 74.219451 199.64861 
L 74.412813 198.955251 
L 74.799537 206.801181 
L 74.992898 221.091898 
L 75.18626 245.555668 
L 75.379622 205.771304 
L 75.959708 203.835434 
L 76.153069 203.89866 
L 76.346431 205.286138 
L 76.926517 214.606809 
L 77.893326 242.346588 
L 78.28005 261.2982 
L 78.473412 230.595993 
L 79.633583 226.240182 
L 80.213668 227.822904 
L 80.793754 230.983537 
L 80.987116 231.334845 
L 81.180478 232.619511 
L 81.760563 239.19113 
L 82.340649 243.745892 
L 82.920734 256.645072 
L 83.114096 261.974185 
L 83.50082 264.587525 
L 83.694182 265.005762 
L 83.887543 267.960607 
L 84.080905 268.77482 
L 84.467629 273.80743 
L 84.660991 258.608684 
L 85.047715 259.111605 
L 86.014524 261.141777 
L 86.594609 262.132825 
L 87.174695 265.077132 
L 87.561419 267.249048 
L 87.75478 267.544106 
L 87.948142 268.538855 
L 88.141504 268.822746 
L 88.334866 268.656931 
L 88.72159 267.866606 
L 89.301675 266.94722 
L 89.688399 265.860098 
L 90.268484 263.401591 
L 91.428656 258.695586 
L 91.622017 259.093115 
L 92.202103 257.211968 
L 92.588827 256.707568 
L 92.782189 255.995713 
L 93.168912 253.860519 
L 93.555636 253.084317 
L 93.94236 254.966577 
L 94.135721 255.37187 
L 94.329083 255.303828 
L 94.522445 255.422902 
L 94.715807 256.030476 
L 95.102531 258.594261 
L 95.875978 267.249786 
L 96.06934 268.768276 
L 96.262702 272.474987 
L 96.649426 274.699967 
L 96.842787 274.107668 
L 97.036149 194.529916 
L 97.229511 193.845054 
L 97.422873 193.760746 
L 97.616235 193.1687 
L 98.19632 193.156864 
L 98.389682 193.498926 
L 98.583044 209.889706 
L 99.16313 207.941255 
L 99.743215 206.455791 
L 99.936577 206.191393 
L 100.129939 206.156259 
L 100.323301 206.282733 
L 100.710024 208.155366 
L 101.096748 211.858495 
L 101.483472 217.952712 
L 101.676834 251.386963 
L 103.030367 248.864222 
L 103.41709 248.404938 
L 103.803814 248.297695 
L 104.190538 248.431933 
L 104.577261 249.178919 
L 104.963985 250.401461 
L 105.544071 253.15199 
L 107.477689 265.856142 
L 107.671051 266.893637 
L 107.864413 276.709357 
L 108.251136 277.08126 
L 109.024584 278.388819 
L 109.798031 280.134508 
L 110.378117 281.509368 
L 110.571479 281.774473 
L 110.764841 281.706837 
L 111.151564 280.760127 
L 111.73165 279.021426 
L 112.311735 277.979566 
L 112.891821 277.656661 
L 113.471906 277.702257 
L 114.245354 278.055485 
L 115.405525 278.599822 
L 115.98561 278.661764 
L 116.565696 278.488589 
L 117.532505 277.899839 
L 118.112591 277.290602 
L 118.692676 276.481453 
L 119.272762 275.174746 
L 120.046209 273.121794 
L 120.239571 194.171952 
L 120.432933 193.4845 
L 120.626295 193.385765 
L 120.819657 192.814439 
L 121.20638 192.714591 
L 121.593104 193.172029 
L 121.786466 205.771304 
L 122.366552 203.631671 
L 122.946637 202.007159 
L 123.139999 201.680636 
L 123.333361 201.618876 
L 123.526723 201.763468 
L 123.913446 203.79253 
L 124.30017 207.871372 
L 124.686894 214.567608 
L 124.880256 230.595993 
L 126.233789 225.516494 
L 126.620512 224.569449 
L 126.813874 224.344984 
L 127.200598 224.40378 
L 127.39396 224.654132 
L 127.780683 226.189151 
L 128.167407 228.675651 
L 128.747493 234.128273 
L 130.294387 253.194888 
L 130.874473 258.157165 
L 131.261197 258.820575 
L 133.194815 262.213811 
L 136.481967 265.706893 
L 137.448776 265.907727 
L 138.995671 265.55476 
L 142.08946 263.42563 
L 142.476184 263.580573 
L 143.249631 264.552024 
L 143.442993 194.866424 
L 143.636355 194.17787 
L 143.829717 194.08394 
L 144.023079 193.504469 
L 144.603164 193.503731 
L 144.796526 193.83248 
L 144.989888 209.06839 
L 145.569973 207.078893 
L 146.150059 205.561998 
L 146.343421 205.277994 
L 146.536783 205.230296 
L 146.730145 205.358985 
L 147.116868 207.257881 
L 147.503592 211.029785 
L 147.890316 217.243444 
L 148.083678 240.455093 
L 149.43721 236.696127 
L 149.823934 236.002025 
L 150.017296 235.836355 
L 150.40402 235.870376 
L 150.597382 236.050835 
L 150.984105 237.175381 
L 151.370829 239.006604 
L 151.950915 243.069907 
L 153.691171 259.447007 
L 154.077895 262.138744 
L 154.271257 265.690919 
L 154.65798 266.086412 
L 156.011513 267.860467 
L 156.978323 268.775412 
L 157.558408 269.345193 
L 158.525217 270.418632 
L 159.298665 271.024059 
L 159.87875 271.218275 
L 160.458836 271.295489 
L 162.005731 270.995474 
L 162.97254 270.532752 
L 163.359264 270.314831 
L 163.745987 270.147018 
L 164.326073 269.854659 
L 165.09952 269.561301 
L 165.486244 269.65741 
L 165.679606 269.750635 
L 166.453053 270.689544 
L 166.646415 193.552178 
L 166.839777 192.882106 
L 167.033139 192.801864 
L 167.226501 192.217588 
L 167.613224 192.122182 
L 167.999948 192.559275 
L 168.19331 207.094058 
L 168.773395 205.011005 
L 169.353481 203.421263 
L 169.546843 203.118766 
L 169.740205 203.068842 
L 169.933567 203.202336 
L 170.32029 205.170012 
L 170.707014 209.123858 
L 171.093738 215.679584 
L 171.287099 245.073825 
L 172.640632 241.863637 
L 173.027356 241.277516 
L 173.220718 241.140688 
L 173.607442 241.173601 
L 173.800804 241.327065 
L 174.187527 242.284095 
L 174.574251 243.842412 
L 175.154336 247.317742 
L 176.894593 261.677608 
L 177.281317 264.085712 
L 177.474679 272.295858 
L 177.861402 272.612735 
L 180.375106 275.545354 
L 180.76183 276.021836 
L 181.148554 276.43534 
L 181.728639 276.562401 
L 183.275534 276.314712 
L 184.048982 276.248891 
L 185.402514 275.987961 
L 186.369324 275.607183 
L 188.10958 275.03748 
L 188.689666 274.759653 
L 189.269751 274.105337 
L 189.656475 273.450245 
L 189.849837 194.171952 
L 190.043199 193.4845 
L 190.236561 195.452551 
L 190.429923 193.062934 
L 190.623284 195.917009 
L 191.010008 195.557578 
L 191.396732 205.771304 
L 191.976817 203.555859 
L 192.170179 203.113586 
L 192.363541 203.020406 
L 192.556903 202.361795 
L 192.750265 203.208629 
L 192.943627 205.25766 
L 193.136988 211.237239 
L 193.523712 228.053287 
L 194.103798 245.992029 
L 194.29716 247.618013 
L 194.490521 230.595993 
L 195.650693 226.192848 
L 195.844054 226.395492 
L 196.037416 226.359994 
L 196.230778 226.601101 
L 196.42414 227.187966 
L 196.617502 227.302604 
L 196.810864 227.646512 
L 197.004225 227.664261 
L 197.197587 228.338769 
L 198.164397 236.231664 
L 198.357758 237.070359 
L 198.937844 246.438738 
L 199.324568 248.725548 
L 199.51793 249.286526 
L 199.711291 248.87273 
L 199.904653 248.965177 
L 200.098015 249.563874 
L 200.678101 258.608684 
L 200.871462 258.820575 
L 202.224995 261.251607 
L 202.418357 261.117741 
L 202.611719 261.139187 
L 202.805081 261.273053 
L 203.191805 260.55824 
L 203.578528 260.529396 
L 203.77189 260.471708 
L 204.158614 260.010206 
L 204.545338 258.442646 
L 206.092232 251.26752 
L 207.639127 239.126785 
L 208.99266 223.259265 
L 209.379384 217.675733 
L 209.572746 216.668415 
L 209.766108 216.748288 
L 209.959469 216.513838 
L 210.539555 216.613317 
L 210.732917 217.206095 
L 210.926279 218.887551 
L 211.506364 228.954475 
L 212.08645 238.103195 
L 212.279812 238.495181 
L 212.666535 241.990481 
L 212.859897 235.64406 
L 213.053259 194.171952 
L 213.439983 200.181485 
L 213.633345 199.25626 
L 214.020068 207.088514 
L 214.406792 246.219448 
L 214.600154 205.771304 
L 215.180239 204.078011 
L 215.373601 204.275117 
L 216.147049 220.257644 
L 216.533772 234.664845 
L 217.500582 262.639815 
L 217.693943 230.595993 
L 218.854114 226.081539 
L 219.047476 226.288255 
L 219.240838 226.249423 
L 219.4342 226.483504 
L 219.627562 227.074067 
L 219.820924 227.241588 
L 220.014286 227.673138 
L 220.207647 227.731195 
L 220.401009 228.374266 
L 221.174457 234.949588 
L 221.56118 237.828437 
L 222.141266 250.963177 
L 222.334628 256.259007 
L 223.108075 262.907176 
L 223.494799 268.78732 
L 223.688161 268.026688 
L 223.881523 258.608684 
L 224.074884 258.81318 
L 224.65497 260.09341 
L 225.235055 261.146216 
L 225.428417 261.335918 
L 225.621779 261.11663 
L 225.815141 261.095184 
L 226.008503 261.187262 
L 226.395227 260.321572 
L 227.168674 260.940238 
L 227.362036 260.859993 
L 227.74876 259.28023 
L 229.295654 251.219073 
L 230.842549 238.137585 
L 231.422635 233.322491 
L 231.809358 231.706118 
L 232.00272 229.686297 
L 232.196082 226.446155 
L 232.389444 226.947229 
L 232.582806 228.276639 
L 232.776168 228.268137 
L 233.162891 229.025846 
L 233.356253 229.128647 
L 233.549615 229.054318 
L 233.742977 228.857217 
L 233.936339 229.575362 
L 234.129701 231.092257 
L 234.323062 233.959275 
L 235.289872 257.857629 
L 235.483234 259.205532 
L 235.869957 264.093848 
L 236.063319 270.74235 
L 236.256681 194.529916 
L 236.450043 193.845054 
L 236.643405 193.765551 
L 236.836766 193.17647 
L 237.22349 193.072555 
L 237.416852 193.215296 
L 237.610214 193.583235 
L 237.803576 209.889706 
L 238.383661 207.94163 
L 238.963747 206.448771 
L 239.157109 206.218019 
L 239.350471 206.19028 
L 239.543832 206.284584 
L 239.930556 208.185695 
L 240.31728 211.960927 
L 240.704003 218.092862 
L 240.897365 251.386963 
L 242.250898 248.832421 
L 242.830984 248.137944 
L 243.217708 247.985218 
L 243.411069 248.01628 
L 243.797793 248.502934 
L 244.184517 249.481042 
L 244.764602 251.907633 
L 245.731412 258.659716 
L 246.891583 265.872857 
L 247.084945 276.709357 
L 247.471668 277.086881 
L 248.245116 278.410563 
L 249.405287 280.48156 
L 249.79201 280.149521 
L 250.372096 279.167124 
L 251.918991 276.1726 
L 253.465886 274.165651 
L 254.432695 273.130707 
L 256.559675 271.440189 
L 257.333123 270.983715 
L 257.913208 270.739355 
L 258.299932 270.76513 
L 258.686655 270.962638 
L 259.266741 271.491667 
L 259.460103 194.171952 
L 259.653465 193.79513 
L 259.846827 193.852449 
L 260.040188 193.395011 
L 260.23355 194.22225 
L 260.620274 199.180449 
L 260.813636 205.728775 
L 261.006998 205.771304 
L 261.393721 204.322451 
L 262.167169 202.541521 
L 262.360531 202.760063 
L 262.940616 210.515028 
L 263.714064 224.033615 
L 263.907425 229.728456 
L 264.100787 230.595993 
L 265.647682 224.846797 
L 266.034406 223.95485 
L 266.421129 223.707825 
L 266.614491 223.802494 
L 266.807853 224.160827 
L 267.194577 225.695846 
L 267.774662 229.995814 
L 268.354748 236.805955 
L 269.514919 251.645449 
L 270.288366 258.608684 
L 270.67509 259.161526 
L 271.835261 261.440202 
L 272.415347 262.015972 
L 273.382156 261.733448 
L 273.76888 261.546332 
L 274.155603 260.912504 
L 278.02284 251.675034 
L 279.376373 249.079071 
L 280.343183 247.91311 
L 281.11663 247.536658 
L 281.309992 247.654993 
L 281.696716 248.240376 
L 282.470163 250.554556 
L 282.663525 194.171952 
L 282.856887 193.4845 
L 283.050249 193.390581 
L 283.24361 192.818131 
L 283.630334 192.727165 
L 284.017058 193.2826 
L 284.21042 205.771304 
L 284.790505 203.634261 
L 285.370591 201.990892 
L 285.563953 201.705411 
L 285.757314 201.658451 
L 285.950676 201.785653 
L 286.3374 203.856142 
L 286.724124 208.000062 
L 287.110847 214.587947 
L 287.304209 230.595993 
L 288.851104 224.877121 
L 289.237828 224.01143 
L 289.624551 223.708938 
L 289.817913 223.781047 
L 290.011275 224.139376 
L 290.397999 225.546818 
L 290.978084 229.751754 
L 291.55817 236.577792 
L 292.718341 251.046378 
L 293.491788 258.608684 
L 293.878512 259.176688 
L 295.038683 261.350711 
L 295.618769 261.948669 
L 296.198854 261.835141 
L 296.585578 261.693511 
L 296.972302 261.395086 
L 297.552387 260.201019 
L 299.872729 254.711414 
L 301.226262 251.606248 
L 304.320052 244.569059 
L 304.706776 244.209617 
L 304.900138 244.141206 
L 305.286861 244.329798 
L 305.673585 244.142313 
L 305.866947 194.866424 
L 306.060309 194.17787 
L 306.25367 194.088745 
L 306.447032 193.511126 
L 306.833756 193.413879 
L 307.027118 193.560686 
L 307.22048 193.922706 
L 307.413842 209.06839 
L 307.993927 207.080006 
L 308.574013 205.551275 
L 308.767375 205.302779 
L 308.960736 205.263579 
L 309.154098 205.365267 
L 309.540822 207.295969 
L 309.927546 211.139243 
L 310.314269 217.347728 
L 310.507631 240.455093 
L 312.054526 236.228705 
L 312.44125 235.596726 
L 312.827973 235.368933 
L 313.021335 235.418487 
L 313.214697 235.68622 
L 313.601421 236.726082 
L 314.181506 239.814237 
L 314.56823 243.027014 
L 316.308487 259.197765 
L 316.501849 260.653649 
L 316.69521 265.690919 
L 317.081934 266.091294 
L 318.242105 267.636666 
L 318.822191 268.073468 
L 319.595638 267.964195 
L 320.175724 267.738065 
L 320.755809 266.873483 
L 327.13675 256.599589 
L 327.716836 255.955036 
L 328.103559 255.80379 
L 328.683645 255.814144 
L 328.877007 255.733527 
L 329.070369 193.552178 
L 329.263731 192.882106 
L 329.457092 192.805931 
L 329.650454 192.222393 
L 330.037178 192.13512 
L 330.423902 192.659862 
L 330.617264 207.094058 
L 331.197349 205.011744 
L 331.777435 203.409427 
L 331.970796 203.14613 
L 332.164158 203.105089 
L 332.35752 203.205664 
L 332.744244 205.204408 
L 333.130968 209.231475 
L 333.517691 215.801986 
L 333.711053 245.073825 
L 335.064586 241.822221 
L 335.644672 240.935823 
L 336.031395 240.745379 
L 336.224757 240.787903 
L 336.611481 241.412487 
L 336.998205 242.662393 
L 337.57829 245.749071 
L 339.70527 262.828411 
L 339.898632 272.295858 
L 340.285356 272.617876 
L 341.832251 274.42743 
L 342.218974 274.54628 
L 343.379146 274.004236 
L 343.959231 273.045914 
L 346.666297 268.847708 
L 348.213192 267.063558 
L 349.180001 266.060896 
L 350.340172 265.004652 
L 350.920258 264.66888 
L 351.306981 264.709557 
L 352.080429 265.209555 
L 352.273791 194.866424 
L 352.660514 200.821228 
L 352.853876 199.939646 
L 353.2406 207.249748 
L 353.627324 246.699076 
L 353.820685 209.06839 
L 354.400771 207.382129 
L 354.594133 207.552609 
L 355.174218 217.992281 
L 355.36758 221.862182 
L 355.754304 236.416564 
L 356.527751 257.870573 
L 356.721113 265.210516 
L 356.914475 240.455093 
L 358.074646 237.107708 
L 358.268008 237.270418 
L 358.46137 237.246013 
L 358.654732 237.430169 
L 358.848094 237.878361 
L 359.041455 237.992999 
L 359.234817 238.275152 
L 359.428179 238.288465 
L 359.621541 238.76439 
L 360.58835 245.057184 
L 360.781712 245.858899 
L 361.361798 256.32409 
L 361.555159 260.744986 
L 362.328607 266.060452 
L 362.715331 271.290053 
L 362.908692 270.991851 
L 363.102054 265.690919 
L 363.488778 266.096509 
L 364.262225 267.314687 
L 364.648949 267.582899 
L 364.842311 267.386686 
L 365.229035 267.435904 
L 365.615758 266.79272 
L 366.582568 267.46863 
L 366.969291 266.275415 
L 368.516186 260.217291 
L 370.643166 248.538432 
L 371.02989 247.691235 
L 371.223252 246.474236 
L 371.803337 241.353691 
L 371.996699 240.345629 
L 372.383423 240.784949 
L 372.576785 240.772005 
L 372.963509 240.174048 
L 373.15687 240.548279 
L 373.350232 241.574459 
L 373.543594 243.710763 
L 374.317042 258.995857 
L 374.897127 265.705598 
L 375.090489 267.770125 
L 375.283851 272.44681 
L 375.477213 193.552178 
L 375.863936 199.699272 
L 376.057298 198.848747 
L 376.444022 207.088514 
L 376.830746 246.219079 
L 377.024107 207.094058 
L 377.604193 205.239906 
L 377.797555 206.96204 
L 378.184279 214.563172 
L 378.571002 222.44276 
L 378.957726 237.314424 
L 379.731173 258.68449 
L 379.924535 266.078722 
L 380.117897 245.073825 
L 381.278068 242.218643 
L 381.47143 242.361014 
L 381.664792 242.338824 
L 381.858154 242.495247 
L 382.051516 242.878725 
L 382.244877 242.969326 
L 382.438239 243.196006 
L 382.631601 243.186022 
L 382.824963 243.583551 
L 383.791772 248.977746 
L 383.985134 249.655583 
L 384.371858 254.820508 
L 384.758581 262.873155 
L 385.725391 269.932499 
L 385.918753 273.126084 
L 386.112114 273.671456 
L 386.305476 272.295858 
L 386.6922 272.492033 
L 387.465647 273.213542 
L 387.659009 273.266199 
L 387.852371 273.455351 
L 388.045733 273.221639 
L 388.239095 273.213467 
L 388.432457 273.323259 
L 388.81918 272.858611 
L 389.012542 273.102381 
L 389.205904 273.159328 
L 389.399266 273.423991 
L 389.592628 274.062662 
L 389.785989 274.158108 
L 389.979351 273.696567 
L 391.91297 265.69506 
L 393.073141 259.871532 
L 393.653226 257.957474 
L 394.233312 257.60543 
L 395.006759 254.300946 
L 395.200121 253.399384 
L 395.586845 254.170037 
L 395.780207 254.127138 
L 396.166931 253.181575 
L 396.360292 253.53214 
L 396.747016 257.176098 
L 397.520463 266.479431 
L 397.713825 268.216098 
L 397.907187 272.52428 
L 398.487273 274.237575 
L 398.487273 274.237575 
" style="fill:none;stroke:#ff7f0e;stroke-linecap:square;stroke-width:1.5;"/>
   </g>
   <g id="patch_9">
    <path d="M 57.6 307.584 
L 57.6 186.624 
" style="fill:none;stroke:#000000;stroke-linecap:square;stroke-linejoin:miter;stroke-width:0.8;"/>
   </g>
   <g id="patch_10">
    <path d="M 414.72 307.584 
L 414.72 186.624 
" style="fill:none;stroke:#000000;stroke-linecap:square;stroke-linejoin:miter;stroke-width:0.8;"/>
   </g>
   <g id="patch_11">
    <path d="M 57.6 307.584 
L 414.72 307.584 
" style="fill:none;stroke:#000000;stroke-linecap:square;stroke-linejoin:miter;stroke-width:0.8;"/>
   </g>
   <g id="patch_12">
    <path d="M 57.6 186.624 
L 414.72 186.624 
" style="fill:none;stroke:#000000;stroke-linecap:square;stroke-linejoin:miter;stroke-width:0.8;"/>
   </g>
   <g id="legend_2">
    <g id="patch_13">
     <path d="M 64.6 302.584 
L 129.582812 302.584 
Q 131.582812 302.584 131.582812 300.584 
L 131.582812 272.22775 
Q 131.582812 270.22775 129.582812 270.22775 
L 64.6 270.22775 
Q 62.6 270.22775 62.6 272.22775 
L 62.6 300.584 
Q 62.6 302.584 64.6 302.584 
z
" style="fill:#ffffff;opacity:0.8;stroke:#cccccc;stroke-linejoin:miter;"/>
    </g>
    <g id="line2d_35">
     <path d="M 66.6 278.326187 
L 86.6 278.326187 
" style="fill:none;stroke:#1f77b4;stroke-linecap:square;stroke-width:1.5;"/>
    </g>
    <g id="line2d_36"/>
    <g id="text_29">
     <!-- output -->
     <g transform="translate(94.6 281.826187)scale(0.1 -0.1)">
      <use xlink:href="#DejaVuSans-111"/>
      <use x="61.181641" xlink:href="#DejaVuSans-117"/>
      <use x="124.560547" xlink:href="#DejaVuSans-116"/>
      <use x="163.769531" xlink:href="#DejaVuSans-112"/>
      <use x="227.246094" xlink:href="#DejaVuSans-117"/>
      <use x="290.625" xlink:href="#DejaVuSans-116"/>
     </g>
    </g>
    <g id="line2d_37">
     <path d="M 66.6 293.004312 
L 86.6 293.004312 
" style="fill:none;stroke:#ff7f0e;stroke-linecap:square;stroke-width:1.5;"/>
    </g>
    <g id="line2d_38"/>
    <g id="text_30">
     <!-- true -->
     <g transform="translate(94.6 296.504312)scale(0.1 -0.1)">
      <use xlink:href="#DejaVuSans-116"/>
      <use x="39.208984" xlink:href="#DejaVuSans-114"/>
      <use x="80.322266" xlink:href="#DejaVuSans-117"/>
      <use x="143.701172" xlink:href="#DejaVuSans-101"/>
     </g>
    </g>
   </g>
  </g>
 </g>
 <defs>
  <clipPath id="pb0bc9605ef">
   <rect height="120.96" width="357.12" x="57.6" y="41.472"/>
  </clipPath>
  <clipPath id="pa4199aa227">
   <rect height="120.96" width="357.12" x="57.6" y="186.624"/>
  </clipPath>
 </defs>
</svg>
